<svg xmlns="http://www.w3.org/2000/svg" viewBox="0 0 2000 2000"><defs><style>.cls-1{fill:#fff;}.cls-2{fill:#1e1e2e;}</style></defs><title>logo dark</title><g id="Layer_1" data-name="Layer 1"><rect class="cls-1" width="2000" height="2000"/><polygon class="cls-2" points="1161.66 1093.24 1107.83 1000 1161.6 906.87 1376.73 534.25 1322.81 440.87 1215.43 440.87 946.47 906.72 892.62 1000 1000 1185.98 1205.19 1541.4 1215.43 1559.13 1322.81 1559.13 1376.73 1465.75 1360.04 1436.84 1161.66 1093.24"/><polygon class="cls-2" points="1592.03 907.16 1560.84 907.14 1161.6 906.87 946.47 906.72 946.19 906.72 649.44 1419.9 623.1 1465.45 661.29 1531.6 677.19 1559.13 708.98 1559.13 784.22 1559.13 804.83 1523.5 1000 1185.98 1053.67 1093.17 1161.66 1093.24 1564.92 1093.52 1591.63 1093.53 1645.63 1000 1592.03 907.16"/><polygon class="cls-2" points="623.1 1465.45 563.85 1362.83 563.85 1362.83 354.37 1000 660.15 470.38 552.55 284 139.16 1000 553.68 1717.97 607.67 1624.46 661.29 1531.6 623.1 1465.45"/><polygon class="cls-2" points="1430.42 254.49 604.73 254.49 712.33 440.87 1215.43 440.87 1322.81 440.87 1376.73 534.25 1592.03 907.16 1645.63 1000 1591.63 1093.53 1376.73 1465.75 1322.81 1559.13 1215.43 1559.13 1178.93 1559.13 858.27 1559.13 784.22 1559.13 708.98 1559.13 671.24 1624.5 601.38 1745.51 1430.42 1745.51 1860.84 1000 1430.42 254.49"/></g></svg>